<svg width="20" height="20" viewBox="0 0 20 20" fill="none" xmlns="http://www.w3.org/2000/svg">
<path d="M2.24991 14.6875C2.08324 14.5208 2.00324 14.3231 2.00991 14.0942C2.01657 13.8653 2.09657 13.6742 2.24991 13.5208L6.64574 9.0625C6.96518 8.74306 7.36102 8.58334 7.83324 8.58334C8.30546 8.58334 8.7013 8.74306 9.02074 9.0625L11.1666 11.2292L15.4999 6.9375H14.1666C13.9305 6.9375 13.7327 6.8575 13.5732 6.6975C13.4138 6.5375 13.3338 6.34 13.3332 6.105C13.3327 5.87 13.4127 5.67223 13.5732 5.51167C13.7338 5.35111 13.9316 5.27111 14.1666 5.27167H17.4999C17.736 5.27167 17.9341 5.35167 18.0941 5.51167C18.2541 5.67167 18.3338 5.86945 18.3332 6.105V9.43834C18.3332 9.67445 18.2532 9.8725 18.0932 10.0325C17.9332 10.1925 17.7355 10.2722 17.4999 10.2717C17.2644 10.2711 17.0666 10.1914 16.9066 10.0325C16.7466 9.87361 16.6666 9.67556 16.6666 9.43834V8.105L12.3541 12.4167C12.0346 12.7361 11.6388 12.8958 11.1666 12.8958C10.6944 12.8958 10.2985 12.7361 9.97907 12.4167L7.83324 10.2708L3.41657 14.6875C3.2638 14.8403 3.06935 14.9167 2.83324 14.9167C2.59713 14.9167 2.40268 14.8403 2.24991 14.6875Z" fill="#E4E4E4"/>
</svg>
