<svg width="20" height="20" viewBox="0 0 20 20" fill="none" xmlns="http://www.w3.org/2000/svg">
<path fill-rule="evenodd" clip-rule="evenodd" d="M9.5 3C9.5 2.73478 9.60536 2.48043 9.79289 2.29289C9.98043 2.10536 10.2348 2 10.5 2C12.0823 2 13.629 2.46919 14.9446 3.34824C16.2602 4.22729 17.2855 5.47672 17.891 6.93853C18.4965 8.40034 18.655 10.0089 18.3463 11.5607C18.0376 13.1126 17.2757 14.538 16.1569 15.6569C15.038 16.7757 13.6126 17.5376 12.0607 17.8463C10.5089 18.155 8.90034 17.9965 7.43853 17.391C5.97672 16.7855 4.72729 15.7602 3.84824 14.4446C2.96919 13.129 2.5 11.5823 2.5 10C2.5 9.73478 2.60536 9.48043 2.79289 9.29289C2.98043 9.10536 3.23478 9 3.5 9C3.76522 9 4.01957 9.10536 4.20711 9.29289C4.39464 9.48043 4.5 9.73478 4.5 10C4.5 11.1867 4.85189 12.3467 5.51118 13.3334C6.17047 14.3201 7.10754 15.0892 8.2039 15.5433C9.30026 15.9974 10.5067 16.1162 11.6705 15.8847C12.8344 15.6532 13.9035 15.0818 14.7426 14.2426C15.5818 13.4035 16.1532 12.3344 16.3847 11.1705C16.6162 10.0067 16.4974 8.80026 16.0433 7.7039C15.5892 6.60754 14.8201 5.67047 13.8334 5.01118C12.8467 4.35189 11.6867 4 10.5 4C10.2348 4 9.98043 3.89464 9.79289 3.70711C9.60536 3.51957 9.5 3.26522 9.5 3Z" fill="#8B8B8B"/>
<path fill-rule="evenodd" clip-rule="evenodd" d="M6.39389 11.447C6.51231 11.2099 6.53175 10.9354 6.44793 10.684C6.36412 10.4325 6.1839 10.2246 5.94689 10.106L3.94689 9.10599C3.8293 9.04608 3.70101 9.01004 3.56942 8.99994C3.43782 8.98984 3.30554 9.0059 3.18018 9.04717C3.05482 9.08845 2.93887 9.15413 2.83902 9.24043C2.73917 9.32673 2.65739 9.43194 2.59839 9.55C2.5394 9.66805 2.50435 9.79662 2.49528 9.92829C2.48621 10.06 2.5033 10.1921 2.54555 10.3171C2.5878 10.4422 2.65438 10.5576 2.74146 10.6568C2.82853 10.756 2.93438 10.8369 3.05289 10.895L5.05289 11.895C5.29014 12.0133 5.56468 12.0326 5.81614 11.9486C6.06761 11.8646 6.27542 11.6842 6.39389 11.447Z" fill="#8B8B8B"/>
<path d="M8.5 3.5C8.5 3.76522 8.39464 4.01957 8.20711 4.20711C8.01957 4.39464 7.76522 4.5 7.5 4.5C7.23478 4.5 6.98043 4.39464 6.79289 4.20711C6.60536 4.01957 6.5 3.76522 6.5 3.5C6.5 3.23478 6.60536 2.98043 6.79289 2.79289C6.98043 2.60536 7.23478 2.5 7.5 2.5C7.76522 2.5 8.01957 2.60536 8.20711 2.79289C8.39464 2.98043 8.5 3.23478 8.5 3.5ZM6 5C6 5.26522 5.89464 5.51957 5.70711 5.70711C5.51957 5.89464 5.26522 6 5 6C4.73478 6 4.48043 5.89464 4.29289 5.70711C4.10536 5.51957 4 5.26522 4 5C4 4.73478 4.10536 4.48043 4.29289 4.29289C4.48043 4.10536 4.73478 4 5 4C5.26522 4 5.51957 4.10536 5.70711 4.29289C5.89464 4.48043 6 4.73478 6 5ZM4.5 7.5C4.5 7.76522 4.39464 8.01957 4.20711 8.20711C4.01957 8.39464 3.76522 8.5 3.5 8.5C3.23478 8.5 2.98043 8.39464 2.79289 8.20711C2.60536 8.01957 2.5 7.76522 2.5 7.5C2.5 7.23478 2.60536 6.98043 2.79289 6.79289C2.98043 6.60536 3.23478 6.5 3.5 6.5C3.76522 6.5 4.01957 6.60536 4.20711 6.79289C4.39464 6.98043 4.5 7.23478 4.5 7.5Z" fill="#8B8B8B"/>
<path fill-rule="evenodd" clip-rule="evenodd" d="M4.20692 9.293C4.39439 9.48053 4.49971 9.73484 4.49971 10C4.49971 10.2652 4.39439 10.5195 4.20692 10.707L2.70692 12.207C2.51832 12.3892 2.26571 12.49 2.00352 12.4877C1.74132 12.4854 1.49051 12.3802 1.3051 12.1948C1.11969 12.0094 1.01452 11.7586 1.01224 11.4964C1.00997 11.2342 1.11076 10.9816 1.29292 10.793L2.79292 9.293C2.98045 9.10553 3.23475 9.00021 3.49992 9.00021C3.76508 9.00021 4.01939 9.10553 4.20692 9.293ZM10.4999 6C10.7651 6 11.0195 6.10536 11.207 6.29289C11.3946 6.48043 11.4999 6.73478 11.4999 7V10C11.4999 10.2652 11.3946 10.5196 11.207 10.7071C11.0195 10.8946 10.7651 11 10.4999 11C10.2347 11 9.98035 10.8946 9.79281 10.7071C9.60528 10.5196 9.49992 10.2652 9.49992 10V7C9.49992 6.73478 9.60528 6.48043 9.79281 6.29289C9.98035 6.10536 10.2347 6 10.4999 6Z" fill="#8B8B8B"/>
<path fill-rule="evenodd" clip-rule="evenodd" d="M14.5 10C14.5 10.2652 14.3946 10.5196 14.2071 10.7071C14.0196 10.8946 13.7652 11 13.5 11H10.5C10.2348 11 9.98043 10.8946 9.79289 10.7071C9.60536 10.5196 9.5 10.2652 9.5 10C9.5 9.73478 9.60536 9.48043 9.79289 9.29289C9.98043 9.10536 10.2348 9 10.5 9H13.5C13.7652 9 14.0196 9.10536 14.2071 9.29289C14.3946 9.48043 14.5 9.73478 14.5 10Z" fill="#8B8B8B"/>
</svg>
