<svg width="17" height="18" viewBox="0 0 17 18" fill="none" xmlns="http://www.w3.org/2000/svg">
<path d="M0.000345266 5.99504C0.00107818 5.10925 0.197927 4.23462 0.576758 3.43393C0.95559 2.63324 1.50701 1.92636 2.19142 1.36405C2.87583 0.801731 3.67625 0.397929 4.53522 0.181631C5.39419 -0.034666 6.2904 -0.0580924 7.1595 0.113034C8.02859 0.284161 8.84902 0.645595 9.56187 1.17139C10.2747 1.69718 10.8623 2.37428 11.2825 3.15409C11.7026 3.93389 11.9449 4.79705 11.9919 5.68158C12.0389 6.56612 11.8895 7.45009 11.5543 8.27003C11.506 8.29506 11.4583 8.32141 11.4113 8.34904L11.2863 8.42404C11.2087 8.47053 11.1199 8.49507 11.0293 8.49504H9.97134C9.88083 8.49507 9.79201 8.47053 9.71434 8.42404L9.58934 8.34904C9.07604 8.04109 8.46927 7.92754 7.87934 8.02904L7.10735 8.16304C6.63332 8.24449 6.18582 8.43873 5.80259 8.72937C5.41936 9.02002 5.11163 9.39854 4.90535 9.83304L4.03535 11.666C3.67466 11.5408 3.32674 11.3814 2.99635 11.19L0.658345 11.97C0.571968 11.9989 0.479354 12.0036 0.3905 11.9836C0.301645 11.9637 0.219925 11.9199 0.154158 11.8569C0.0883906 11.7939 0.0410747 11.7141 0.0173164 11.6262C-0.00644198 11.5383 -0.00574043 11.4456 0.0193453 11.358L0.731345 8.86703C0.251365 7.98589 3.24199e-05 6.99843 0.000345266 5.99504ZM4.00035 4.99504C4.00035 5.12764 4.05302 5.25482 4.14679 5.34859C4.24056 5.44236 4.36774 5.49504 4.50035 5.49504H7.50035C7.63295 5.49504 7.76013 5.44236 7.8539 5.34859C7.94767 5.25482 8.00035 5.12764 8.00035 4.99504C8.00035 4.86243 7.94767 4.73525 7.8539 4.64148C7.76013 4.54771 7.63295 4.49504 7.50035 4.49504H4.50035C4.36774 4.49504 4.24056 4.54771 4.14679 4.64148C4.05302 4.73525 4.00035 4.86243 4.00035 4.99504ZM4.50035 6.49504C4.36774 6.49504 4.24056 6.54771 4.14679 6.64148C4.05302 6.73525 4.00035 6.86243 4.00035 6.99504C4.00035 7.12764 4.05302 7.25482 4.14679 7.34859C4.24056 7.44236 4.36774 7.49504 4.50035 7.49504H6.50035C6.63295 7.49504 6.76013 7.44236 6.8539 7.34859C6.94767 7.25482 7.00035 7.12764 7.00035 6.99504C7.00035 6.86243 6.94767 6.73525 6.8539 6.64148C6.76013 6.54771 6.63295 6.49504 6.50035 6.49504H4.50035ZM12.9503 9.01504C12.5967 8.95439 12.2331 9.02251 11.9253 9.20704L11.8003 9.28203C11.5677 9.42134 11.3015 9.49495 11.0303 9.49504H9.97035C9.69914 9.49495 9.43304 9.42134 9.20035 9.28203L9.07535 9.20704C8.76736 9.02227 8.4033 8.95414 8.04935 9.01504L7.27635 9.14804C6.96044 9.20256 6.66227 9.33222 6.40696 9.52609C6.15165 9.71997 5.94669 9.97237 5.80935 10.262L4.60935 12.789C4.04935 13.979 3.92235 14.974 4.04135 15.79C4.13519 16.4578 4.41993 17.0843 4.86135 17.594C5.13335 17.91 5.51134 18.03 5.87135 17.991C6.22379 17.9468 6.54624 17.7702 6.77334 17.497L7.59134 16.527C7.73217 16.3603 7.90767 16.2264 8.1056 16.1345C8.30353 16.0426 8.51913 15.995 8.73735 15.995H12.2633C12.4816 15.9951 12.6973 16.0429 12.8952 16.1349C13.0932 16.227 13.2686 16.3612 13.4093 16.528L14.2273 17.497C14.4573 17.769 14.7803 17.953 15.1293 17.991C15.4903 18.031 15.8673 17.91 16.1393 17.594C16.4813 17.199 16.8393 16.605 16.9593 15.79C17.0793 14.975 16.9513 13.978 16.3903 12.79L15.1913 10.262C15.054 9.97237 14.849 9.71997 14.5937 9.52609C14.3384 9.33222 14.0403 9.20256 13.7243 9.14804L12.9503 9.01504ZM10.5003 12.995C10.3014 12.995 10.1107 12.916 9.97002 12.7754C9.82936 12.6347 9.75035 12.4439 9.75035 12.245C9.75035 12.0461 9.82936 11.8554 9.97002 11.7147C10.1107 11.5741 10.3014 11.495 10.5003 11.495C10.6993 11.495 10.89 11.5741 11.0307 11.7147C11.1713 11.8554 11.2503 12.0461 11.2503 12.245C11.2503 12.4439 11.1713 12.6347 11.0307 12.7754C10.89 12.916 10.6993 12.995 10.5003 12.995Z" fill="white"/>
</svg>
