<svg width="25" height="25" viewBox="0 0 25 25" fill="none" xmlns="http://www.w3.org/2000/svg">
<path d="M11.7708 10.2083L9.68742 8.12498C9.58325 8.02081 9.50513 7.9038 9.45304 7.77394C9.40096 7.64408 9.37492 7.50936 9.37492 7.36977V3.12498C9.37492 2.82984 9.47492 2.58262 9.67492 2.38331C9.87492 2.18401 10.1221 2.08401 10.4166 2.08331H14.5833C14.8784 2.08331 15.126 2.18331 15.326 2.38331C15.526 2.58331 15.6256 2.83054 15.6249 3.12498V7.36977C15.6249 7.50866 15.5989 7.64338 15.5468 7.77394C15.4947 7.90449 15.4166 8.02151 15.3124 8.12498L13.2291 10.2083C13.1249 10.3125 13.0121 10.3864 12.8905 10.4302C12.769 10.4739 12.6388 10.4955 12.4999 10.4948C12.361 10.4941 12.2308 10.4725 12.1093 10.4302C11.9878 10.3878 11.8749 10.3139 11.7708 10.2083ZM14.7916 13.2291C14.6874 13.125 14.6138 13.0121 14.5708 12.8906C14.5277 12.7691 14.5058 12.6389 14.5051 12.5C14.5044 12.3611 14.5263 12.2309 14.5708 12.1094C14.6152 11.9878 14.6888 11.875 14.7916 11.7708L16.8749 9.68748C16.9791 9.58331 17.0964 9.50519 17.227 9.4531C17.3576 9.40102 17.4919 9.37498 17.6301 9.37498H21.8749C22.1701 9.37498 22.4176 9.47498 22.6176 9.67498C22.8176 9.87498 22.9173 10.1222 22.9166 10.4166V14.5833C22.9166 14.8785 22.8166 15.126 22.6166 15.326C22.4166 15.526 22.1694 15.6257 21.8749 15.625H17.6301C17.4912 15.625 17.3569 15.5989 17.227 15.5469C17.0971 15.4948 16.9798 15.4166 16.8749 15.3125L14.7916 13.2291ZM2.08325 14.5833V10.4166C2.08325 10.1215 2.18325 9.87429 2.38325 9.67498C2.58325 9.47567 2.83047 9.37567 3.12492 9.37498H7.36971C7.5086 9.37498 7.64332 9.40102 7.77388 9.4531C7.90443 9.50519 8.02145 9.58331 8.12492 9.68748L10.2083 11.7708C10.3124 11.875 10.3864 11.9878 10.4301 12.1094C10.4739 12.2309 10.4954 12.3611 10.4947 12.5C10.494 12.6389 10.4725 12.7691 10.4301 12.8906C10.3878 13.0121 10.3138 13.125 10.2083 13.2291L8.12492 15.3125C8.02075 15.4166 7.90374 15.4948 7.77388 15.5469C7.64402 15.5989 7.50929 15.625 7.36971 15.625H3.12492C2.82978 15.625 2.58256 15.525 2.38325 15.325C2.18395 15.125 2.08395 14.8778 2.08325 14.5833ZM9.37492 21.875V17.6302C9.37492 17.4913 9.40096 17.3569 9.45304 17.2271C9.50513 17.0972 9.58325 16.9798 9.68742 16.875L11.7708 14.7916C11.8749 14.6875 11.9878 14.6139 12.1093 14.5708C12.2308 14.5278 12.361 14.5059 12.4999 14.5052C12.6388 14.5045 12.769 14.5264 12.8905 14.5708C13.0121 14.6153 13.1249 14.6889 13.2291 14.7916L15.3124 16.875C15.4166 16.9791 15.4947 17.0965 15.5468 17.2271C15.5989 17.3576 15.6249 17.492 15.6249 17.6302V21.875C15.6249 22.1701 15.5249 22.4177 15.3249 22.6177C15.1249 22.8177 14.8777 22.9173 14.5833 22.9166H10.4166C10.1214 22.9166 9.87422 22.8166 9.67492 22.6166C9.47561 22.4166 9.37561 22.1694 9.37492 21.875ZM12.4999 7.96873L13.5416 6.92706V4.16665H11.4583V6.92706L12.4999 7.96873ZM4.16659 13.5416H6.927L7.96867 12.5L6.927 11.4583H4.16659V13.5416ZM11.4583 20.8333H13.5416V18.0729L12.4999 17.0312L11.4583 18.0729V20.8333ZM18.0728 13.5416H20.8333V11.4583H18.0728L17.0312 12.5L18.0728 13.5416Z" fill="#E4E4E4"/>
</svg>
